<!-- Generated by IcoMoon.io -->
<svg version="1.1" xmlns="http://www.w3.org/2000/svg" width="32" height="32" viewBox="0 0 32 32">
<path fill="none" stroke-linejoin="round" stroke-linecap="round" stroke-miterlimit="4" stroke-width="3" stroke="#000" d="M29.334 8.266c0-1.492 0-2.24-0.292-2.81-0.26-0.504-0.66-0.905-1.149-1.159l-0.015-0.007c-0.572-0.29-1.318-0.29-2.812-0.29h-0.532c-2.988 0-4.48 0-5.622 0.58-1.004 0.512-1.82 1.328-2.33 2.332-0.582 1.14-0.582 2.634-0.582 5.62v15.468l0.134-0.2c0.926-1.39 1.388-2.084 2-2.586 0.542-0.446 1.166-0.78 1.838-0.984 0.756-0.23 1.592-0.23 3.26-0.23h1.834c1.494 0 2.24 0 2.812-0.29 0.5-0.256 0.908-0.664 1.164-1.166 0.292-0.57 0.292-1.318 0.292-2.81v-11.468zM2.666 8.266c0-1.492 0-2.24 0.292-2.81 0.254-0.5 0.662-0.91 1.164-1.166 0.572-0.29 1.318-0.29 2.812-0.29h0.532c2.988 0 4.48 0 5.62 0.58 1.006 0.512 1.82 1.328 2.332 2.332 0.582 1.14 0.582 2.634 0.582 5.62v15.468l-0.134-0.2c-0.926-1.39-1.388-2.084-2-2.586-0.518-0.429-1.131-0.766-1.8-0.974l-0.038-0.010c-0.758-0.23-1.592-0.23-3.26-0.23h-1.834c-1.494 0-2.24 0-2.812-0.29-0.504-0.261-0.904-0.662-1.157-1.151l-0.007-0.015c-0.292-0.57-0.292-1.318-0.292-2.81v-11.468z"></path>
</svg>
