<!-- Generated by IcoMoon.io -->
<svg version="1.1" xmlns="http://www.w3.org/2000/svg" width="32" height="32" viewBox="0 0 32 32">
<path fill="#ffc531" stroke="#ffc531" stroke-linejoin="miter" stroke-linecap="butt" stroke-miterlimit="4" stroke-width="2.4" d="M19.6 9.394c0.318 0.604 0.898 1.024 1.57 1.14l7.6 1.314-5.376 5.534c-0.385 0.396-0.622 0.937-0.622 1.533 0 0.11 0.008 0.219 0.024 0.325l-0.001-0.012 1.1 7.636-6.924-3.404-0.234-0.1c-0.219-0.080-0.472-0.127-0.736-0.127s-0.517 0.046-0.751 0.132l0.015-0.005-0.234 0.1-6.924 3.404 1.1-7.636c0.014-0.094 0.022-0.202 0.022-0.313 0-0.596-0.237-1.138-0.623-1.534l0.001 0-5.378-5.534 7.602-1.312c0.685-0.122 1.252-0.547 1.564-1.128l0.006-0.012 3.6-6.826 3.6 6.822z"></path>
</svg>
